<svg xmlns="http://www.w3.org/2000/svg" width="96" height="96"><switch><g><linearGradient id="a" gradientUnits="userSpaceOnUse" x1="11.168" y1="10.574" x2="80.24" y2="79.645"><stop offset=".331" stop-color="#ff8c00"/><stop offset=".429" stop-color="#fd7f13"/><stop offset=".627" stop-color="#f85c43"/><stop offset=".862" stop-color="#f22e83"/></linearGradient><path fill="url(#a)" d="M85.694 41.08H70.147c-7.943 0-14.383-6.44-14.383-14.383V11.15a7.035 7.035 0 1 0-14.07 0v16.623c0 7.35-5.958 13.307-13.307 13.307H11.764a7.035 7.035 0 1 0 0 14.07h17.643c6.786 0 12.287 5.501 12.287 12.287V85.08a7.035 7.035 0 1 0 14.07 0V68.355c0-7.293 5.912-13.205 13.206-13.205h16.724a7.035 7.035 0 1 0 0-14.07zM22.23 28.96a6.442 6.442 0 1 0 0-12.883 6.442 6.442 0 0 0 0 12.883zm51.072 38.189a6.442 6.442 0 1 0 0 12.883 6.442 6.442 0 0 0 0-12.883zm-2.572-34.45c1.53 0 3.062-.584 4.23-1.751l11.336-11.336a5.983 5.983 0 0 0-8.46-8.46L66.499 22.488a5.983 5.983 0 0 0 4.23 10.211zM22.622 65.445L11.286 76.781a5.983 5.983 0 0 0 8.46 8.46l11.336-11.336a5.983 5.983 0 0 0-8.46-8.46z"/></g></switch></svg>