<svg xmlns="http://www.w3.org/2000/svg" width="96" height="96"><defs><linearGradient id="a" x1="57.651%" x2="36.407%" y1="26.513%" y2="102.129%"><stop offset="33.06%" stop-color="#FF8C00"/><stop offset="42.87%" stop-color="#FD7F13"/><stop offset="62.66%" stop-color="#F85C43"/><stop offset="86.16%" stop-color="#F22E83"/></linearGradient><linearGradient id="b" x1="-2.287%" x2="62.346%" y1="23.049%" y2="56.364%"><stop offset="33.06%" stop-color="#FF8C00"/><stop offset="42.87%" stop-color="#FD7F13"/><stop offset="62.66%" stop-color="#F85C43"/><stop offset="86.16%" stop-color="#F22E83"/></linearGradient><linearGradient id="c" x1="26.314%" x2="55.536%" y1="40.331%" y2="95.175%"><stop offset="33.06%" stop-color="#FF8C00"/><stop offset="42.87%" stop-color="#FD7F13"/><stop offset="62.66%" stop-color="#F85C43"/><stop offset="86.16%" stop-color="#F22E83"/></linearGradient></defs><g fill="none"><path fill="url(#a)" d="M33.5 86h13.3L20.2 59.3c-4.9-4.9-12.8-4.9-17.7 0L.8 61l24.8 25h7.9z" transform="translate(6 5)"/><path fill="url(#b)" d="M63.5 41h-42C10.2 41 1 31.8 1 20.5S10.2 0 21.5 0h42C74.8 0 84 9.2 84 20.5S74.8 41 63.5 41z" transform="translate(6 5)"/><path fill="url(#c)" d="M80.8 86V65.8c0-3.8-3.1-6.9-6.9-6.9-2.1 0-4 .9-5.2 2.4v-2.6c0-3.8-3.1-6.9-6.9-6.9-2.7 0-5 1.6-6.2 3.9v-2.3c0-3.8-3.1-6.9-6.9-6.9-2.7 0-5 1.6-6.2 3.9V18.6c0-3.8-3.1-6.9-6.9-6.9-3.8 0-6.9 3.1-6.9 6.9V86h52.1z" transform="translate(6 5)"/></g></svg>