<svg xmlns="http://www.w3.org/2000/svg" width="96" height="96"><defs><linearGradient id="a" x1="21.588%" x2="65.825%" y1="-17.917%" y2="97.894%"><stop offset="33.06%" stop-color="#FF8C00"/><stop offset="42.87%" stop-color="#FD7F13"/><stop offset="62.66%" stop-color="#F85C43"/><stop offset="86.16%" stop-color="#F22E83"/></linearGradient><linearGradient id="b" x1=".022%" x2="99.985%" y1="49.978%" y2="49.978%"><stop offset="33.06%" stop-color="#FF8C00"/><stop offset="42.87%" stop-color="#FD7F13"/><stop offset="62.66%" stop-color="#F85C43"/><stop offset="86.16%" stop-color="#F22E83"/></linearGradient></defs><g fill="none"><path fill="url(#a)" d="M38.4 35.5v-.1c0-2.2-1.2-4-2.9-4-1.8 0-2.9 1.6-2.9 3.9v.1c0 2.2 1.3 3.9 2.9 3.9 1.7 0 2.9-1.6 2.9-3.8zm8.1 14.2l-12.1 12-3.5-3.5 15.1-15L42.1 1 1.1.9l-.3 86 49 .2-3.3-37.4zM15.1 20.8c-3.1 0-5.7-2.6-5.7-5.7s2.6-5.7 5.7-5.7 5.7 2.6 5.7 5.7c0 3.2-2.6 5.7-5.7 5.7zm11.3 14.6v-.1c0-5.1 3.6-9.4 9.1-9.4s9 4.2 9 9.4v.1c0 5.1-3.7 9.3-9.1 9.3-5.4 0-9-4.2-9-9.3z" transform="translate(4 4)"/><path fill="url(#b)" d="M41.1 1L1.1.9l-.1 37L49.9 87 89 48.1 41.1 1zm-26 19.8c-3.1 0-5.7-2.6-5.7-5.7s2.6-5.7 5.7-5.7 5.7 2.6 5.7 5.7c0 3.2-2.6 5.7-5.7 5.7zm11.3 14.6v-.1c0-5.1 3.6-9.4 9.1-9.4s9 4.2 9 9.4v.1c0 5.1-3.7 9.3-9.1 9.3-5.4 0-9-4.2-9-9.3zm8 26.3l-3.5-3.5 30.2-30 3.5 3.5-30.2 30zM60.7 64c-5.4 0-9-4.3-9-9.4v-.1c0-5.2 3.6-9.4 9.1-9.4 5.4 0 9 4.2 9 9.4v.1c0 5.2-3.7 9.5-9.1 9.4zM38.4 35.5v-.1c0-2.2-1.2-4-2.9-4-1.8 0-2.9 1.6-2.9 3.9v.1c0 2.2 1.3 3.9 2.9 3.9 1.7 0 2.9-1.6 2.9-3.8zm22.4 15.1c-1.8 0-2.9 1.6-2.9 3.9v.1c0 2.2 1.3 3.9 2.9 3.9 1.7 0 2.9-1.6 2.9-3.8v-.1c0-2.2-1.2-4-2.9-4z" transform="translate(4 4)"/></g></svg>