<svg xmlns="http://www.w3.org/2000/svg" width="24" height="24"><path d="M8.925 20a11.08 11.08 0 007.848-3.141 10.664 10.664 0 003.222-7.704v-.492a7.868 7.868 0 001.89-1.98 8.032 8.032 0 01-2.23.604 3.862 3.862 0 001.71-2.109 7.802 7.802 0 01-2.467.93 3.93 3.93 0 00-4.67-.754 3.796 3.796 0 00-1.947 4.238 11.142 11.142 0 01-7.988-3.996 3.78 3.78 0 001.201 5.092 3.878 3.878 0 01-1.758-.483 3.841 3.841 0 003.11 3.717 3.97 3.97 0 01-1.749.065 3.887 3.887 0 003.62 2.649 7.917 7.917 0 01-4.792 1.71 8.05 8.05 0 01-.946-.056A11.186 11.186 0 008.925 20z"/></svg>